<svg width="161" height="160" viewBox="0 0 161 160" fill="none" xmlns="http://www.w3.org/2000/svg">
<mask id="path-1-outside-1_348_7505" maskUnits="userSpaceOnUse" x="2.30225" y="1.98975" width="157" height="157" fill="black">
<rect fill="white" x="2.30225" y="1.98975" width="157" height="157"/>
<path d="M79.351 3.73911C79.6102 2.73996 81.0316 2.73996 81.2908 3.73911L83.7456 13.2028C83.9877 14.1361 85.2825 14.2207 85.6444 13.3268L89.3132 4.26523C89.7006 3.30833 91.1099 3.49321 91.2365 4.51754L92.4352 14.2219C92.5533 15.1788 93.826 15.4311 94.3016 14.5919L99.1216 6.08689C99.6307 5.18862 101.004 5.55524 100.996 6.58723L100.917 16.3667C100.91 17.3307 102.138 17.7464 102.719 16.9764L108.609 9.17299C109.231 8.34872 110.544 8.89081 110.401 9.91286L109.047 19.6004C108.913 20.5551 110.077 21.127 110.754 20.4394L117.612 13.4708C118.336 12.7347 119.567 13.443 119.292 14.4376L116.684 23.8676C116.428 24.7966 117.506 25.5151 118.267 24.9216L125.977 18.9069C126.792 18.2715 127.919 19.1339 127.517 20.0842L123.7 29.0951C123.324 29.9826 124.299 30.8353 125.131 30.3461L133.562 25.3884C134.452 24.8647 135.457 25.8665 134.934 26.7562L129.973 35.1934C129.484 36.0244 130.339 36.9966 131.228 36.6202L140.235 32.8045C141.187 32.4015 142.052 33.5255 141.417 34.3393L135.396 42.0582C134.803 42.8183 135.524 43.8935 136.454 43.6363L145.884 41.0283C146.88 40.7529 147.591 41.98 146.855 42.7041L139.877 49.5719C139.189 50.2481 139.763 51.4079 140.719 51.2743L150.411 49.9193C151.434 49.7762 151.979 51.0853 151.154 51.7073L143.338 57.606C142.569 58.1868 142.986 59.4113 143.951 59.4036L153.739 59.3253C154.772 59.317 155.14 60.6857 154.242 61.1948L145.722 66.023C144.883 66.4985 145.136 67.7668 146.094 67.885L155.81 69.0852C156.835 69.2119 157.021 70.6167 156.064 71.0043L146.987 74.6791C146.093 75.0411 146.178 76.3314 147.112 76.5736L156.59 79.0321C157.59 79.2914 157.59 80.7084 156.59 80.9678L147.112 83.4262C146.178 83.6684 146.093 84.9588 146.987 85.3207L156.064 88.9955C157.021 89.3831 156.835 90.788 155.81 90.9146L146.094 92.1148C145.136 92.2331 144.883 93.5013 145.722 93.9768L154.242 98.805C155.14 99.3142 154.772 100.683 153.739 100.675L143.951 100.596C142.986 100.589 142.569 101.813 143.338 102.394L151.154 108.293C151.979 108.915 151.434 110.224 150.411 110.081L140.719 108.726C139.763 108.592 139.189 109.752 139.877 110.428L146.855 117.296C147.591 118.02 146.88 119.247 145.884 118.972L136.454 116.364C135.524 116.106 134.803 117.182 135.396 117.942L141.417 125.661C142.052 126.474 141.187 127.598 140.235 127.195L131.228 123.38C130.339 123.003 129.484 123.975 129.973 124.806L134.934 133.244C135.457 134.133 134.452 135.135 133.562 134.611L125.131 129.654C124.299 129.165 123.324 130.017 123.7 130.905L127.517 139.916C127.919 140.866 126.792 141.728 125.977 141.093L118.267 135.078C117.506 134.485 116.428 135.203 116.684 136.132L119.292 145.562C119.567 146.557 118.336 147.265 117.612 146.529L110.754 139.56C110.077 138.873 108.913 139.445 109.047 140.399L110.401 150.087C110.544 151.109 109.231 151.651 108.609 150.827L102.719 143.023C102.138 142.253 100.91 142.669 100.917 143.633L100.996 153.413C101.004 154.445 99.6307 154.811 99.1216 153.913L94.3016 145.408C93.826 144.569 92.5533 144.821 92.4352 145.778L91.2365 155.482C91.1099 156.507 89.7006 156.692 89.3132 155.735L85.6444 146.673C85.2825 145.779 83.9877 145.864 83.7456 146.797L81.2908 156.261C81.0316 157.26 79.6102 157.26 79.351 156.261L76.8962 146.797C76.6541 145.864 75.3593 145.779 74.9974 146.673L71.3286 155.735C70.9412 156.692 69.5318 156.507 69.4053 155.482L68.2066 145.778C68.0884 144.821 66.8158 144.569 66.3402 145.408L61.5202 153.913C61.0111 154.811 59.638 154.445 59.6463 153.413L59.7245 143.633C59.7322 142.669 58.5035 142.253 57.9224 143.023L52.0333 150.827C51.4112 151.651 50.0978 151.109 50.2407 150.087L51.5951 140.399C51.7285 139.445 50.5648 138.873 49.888 139.56L43.0301 146.529C42.3056 147.265 41.0745 146.557 41.3496 145.562L43.9574 136.132C44.2143 135.203 43.1354 134.485 42.3746 135.078L34.6647 141.093C33.8503 141.728 32.7224 140.866 33.1249 139.916L36.9421 130.905C37.3181 130.017 36.3425 129.165 35.5107 129.654L27.0802 134.611C26.1897 135.135 25.1844 134.133 25.7075 133.244L30.6693 124.806C31.1579 123.975 30.3024 123.003 29.4138 123.38L20.4064 127.195C19.4551 127.598 18.5895 126.474 19.2244 125.661L25.2461 117.942C25.839 117.182 25.1182 116.106 24.188 116.364L14.7576 118.972C13.7618 119.247 13.0509 118.02 13.7867 117.296L20.7652 110.428C21.4524 109.752 20.8785 108.592 19.9228 108.726L10.2306 110.081C9.20734 110.224 8.66319 108.915 9.48733 108.293L17.3033 102.394C18.073 101.813 17.6559 100.589 16.6911 100.596L6.90285 100.675C5.86976 100.683 5.50172 99.3142 6.40013 98.805L14.9195 93.9768C15.7586 93.5013 15.5054 92.2331 14.5479 92.1148L4.83155 90.9146C3.80629 90.788 3.62068 89.3831 4.578 88.9955L13.6545 85.3207C14.5486 84.9588 14.4637 83.6684 13.5299 83.4262L4.05213 80.9678C3.05228 80.7084 3.05228 79.2914 4.05213 79.0321L13.5299 76.5736C14.4637 76.3314 14.5486 75.0411 13.6545 74.6791L4.578 71.0043C3.62068 70.6167 3.80629 69.2119 4.83155 69.0852L14.5479 67.885C15.5054 67.7668 15.7586 66.4985 14.9195 66.023L6.40013 61.1948C5.50172 60.6857 5.86976 59.317 6.90286 59.3253L16.6911 59.4036C17.6559 59.4113 18.073 58.1868 17.3033 57.606L9.48733 51.7073C8.66319 51.0853 9.20734 49.7762 10.2306 49.9193L19.9228 51.2743C20.8785 51.4079 21.4524 50.2481 20.7652 49.5719L13.7867 42.7041C13.0509 41.98 13.7618 40.7529 14.7576 41.0283L24.188 43.6363C25.1182 43.8935 25.839 42.8183 25.2461 42.0582L19.2244 34.3393C18.5895 33.5255 19.4551 32.4015 20.4064 32.8045L29.4138 36.6202C30.3024 36.9966 31.1579 36.0244 30.6693 35.1934L25.7075 26.7562C25.1844 25.8665 26.1897 24.8647 27.0802 25.3884L35.5107 30.3461C36.3425 30.8353 37.3181 29.9826 36.9421 29.0951L33.1249 20.0842C32.7224 19.1339 33.8503 18.2715 34.6647 18.9069L42.3746 24.9216C43.1354 25.5151 44.2143 24.7966 43.9574 23.8676L41.3496 14.4376C41.0745 13.443 42.3056 12.7347 43.0301 13.4708L49.888 20.4394C50.5648 21.127 51.7285 20.5551 51.5951 19.6004L50.2407 9.91286C50.0978 8.89081 51.4112 8.34872 52.0333 9.17299L57.9224 16.9764C58.5035 17.7464 59.7322 17.3307 59.7245 16.3667L59.6463 6.58723C59.638 5.55524 61.0111 5.18862 61.5202 6.08689L66.3402 14.5919C66.8158 15.4311 68.0884 15.1788 68.2066 14.2219L69.4053 4.51754C69.5318 3.49322 70.9412 3.30833 71.3286 4.26523L74.9974 13.3268C75.3593 14.2207 76.6541 14.1361 76.8962 13.2028L79.351 3.73911Z"/>
</mask>
<path d="M79.351 3.73911C79.6102 2.73996 81.0316 2.73996 81.2908 3.73911L83.7456 13.2028C83.9877 14.1361 85.2825 14.2207 85.6444 13.3268L89.3132 4.26523C89.7006 3.30833 91.1099 3.49321 91.2365 4.51754L92.4352 14.2219C92.5533 15.1788 93.826 15.4311 94.3016 14.5919L99.1216 6.08689C99.6307 5.18862 101.004 5.55524 100.996 6.58723L100.917 16.3667C100.91 17.3307 102.138 17.7464 102.719 16.9764L108.609 9.17299C109.231 8.34872 110.544 8.89081 110.401 9.91286L109.047 19.6004C108.913 20.5551 110.077 21.127 110.754 20.4394L117.612 13.4708C118.336 12.7347 119.567 13.443 119.292 14.4376L116.684 23.8676C116.428 24.7966 117.506 25.5151 118.267 24.9216L125.977 18.9069C126.792 18.2715 127.919 19.1339 127.517 20.0842L123.7 29.0951C123.324 29.9826 124.299 30.8353 125.131 30.3461L133.562 25.3884C134.452 24.8647 135.457 25.8665 134.934 26.7562L129.973 35.1934C129.484 36.0244 130.339 36.9966 131.228 36.6202L140.235 32.8045C141.187 32.4015 142.052 33.5255 141.417 34.3393L135.396 42.0582C134.803 42.8183 135.524 43.8935 136.454 43.6363L145.884 41.0283C146.88 40.7529 147.591 41.98 146.855 42.7041L139.877 49.5719C139.189 50.2481 139.763 51.4079 140.719 51.2743L150.411 49.9193C151.434 49.7762 151.979 51.0853 151.154 51.7073L143.338 57.606C142.569 58.1868 142.986 59.4113 143.951 59.4036L153.739 59.3253C154.772 59.317 155.14 60.6857 154.242 61.1948L145.722 66.023C144.883 66.4985 145.136 67.7668 146.094 67.885L155.81 69.0852C156.835 69.2119 157.021 70.6167 156.064 71.0043L146.987 74.6791C146.093 75.0411 146.178 76.3314 147.112 76.5736L156.59 79.0321C157.59 79.2914 157.59 80.7084 156.59 80.9678L147.112 83.4262C146.178 83.6684 146.093 84.9588 146.987 85.3207L156.064 88.9955C157.021 89.3831 156.835 90.788 155.81 90.9146L146.094 92.1148C145.136 92.2331 144.883 93.5013 145.722 93.9768L154.242 98.805C155.14 99.3142 154.772 100.683 153.739 100.675L143.951 100.596C142.986 100.589 142.569 101.813 143.338 102.394L151.154 108.293C151.979 108.915 151.434 110.224 150.411 110.081L140.719 108.726C139.763 108.592 139.189 109.752 139.877 110.428L146.855 117.296C147.591 118.02 146.88 119.247 145.884 118.972L136.454 116.364C135.524 116.106 134.803 117.182 135.396 117.942L141.417 125.661C142.052 126.474 141.187 127.598 140.235 127.195L131.228 123.38C130.339 123.003 129.484 123.975 129.973 124.806L134.934 133.244C135.457 134.133 134.452 135.135 133.562 134.611L125.131 129.654C124.299 129.165 123.324 130.017 123.7 130.905L127.517 139.916C127.919 140.866 126.792 141.728 125.977 141.093L118.267 135.078C117.506 134.485 116.428 135.203 116.684 136.132L119.292 145.562C119.567 146.557 118.336 147.265 117.612 146.529L110.754 139.56C110.077 138.873 108.913 139.445 109.047 140.399L110.401 150.087C110.544 151.109 109.231 151.651 108.609 150.827L102.719 143.023C102.138 142.253 100.91 142.669 100.917 143.633L100.996 153.413C101.004 154.445 99.6307 154.811 99.1216 153.913L94.3016 145.408C93.826 144.569 92.5533 144.821 92.4352 145.778L91.2365 155.482C91.1099 156.507 89.7006 156.692 89.3132 155.735L85.6444 146.673C85.2825 145.779 83.9877 145.864 83.7456 146.797L81.2908 156.261C81.0316 157.26 79.6102 157.26 79.351 156.261L76.8962 146.797C76.6541 145.864 75.3593 145.779 74.9974 146.673L71.3286 155.735C70.9412 156.692 69.5318 156.507 69.4053 155.482L68.2066 145.778C68.0884 144.821 66.8158 144.569 66.3402 145.408L61.5202 153.913C61.0111 154.811 59.638 154.445 59.6463 153.413L59.7245 143.633C59.7322 142.669 58.5035 142.253 57.9224 143.023L52.0333 150.827C51.4112 151.651 50.0978 151.109 50.2407 150.087L51.5951 140.399C51.7285 139.445 50.5648 138.873 49.888 139.56L43.0301 146.529C42.3056 147.265 41.0745 146.557 41.3496 145.562L43.9574 136.132C44.2143 135.203 43.1354 134.485 42.3746 135.078L34.6647 141.093C33.8503 141.728 32.7224 140.866 33.1249 139.916L36.9421 130.905C37.3181 130.017 36.3425 129.165 35.5107 129.654L27.0802 134.611C26.1897 135.135 25.1844 134.133 25.7075 133.244L30.6693 124.806C31.1579 123.975 30.3024 123.003 29.4138 123.38L20.4064 127.195C19.4551 127.598 18.5895 126.474 19.2244 125.661L25.2461 117.942C25.839 117.182 25.1182 116.106 24.188 116.364L14.7576 118.972C13.7618 119.247 13.0509 118.02 13.7867 117.296L20.7652 110.428C21.4524 109.752 20.8785 108.592 19.9228 108.726L10.2306 110.081C9.20734 110.224 8.66319 108.915 9.48733 108.293L17.3033 102.394C18.073 101.813 17.6559 100.589 16.6911 100.596L6.90285 100.675C5.86976 100.683 5.50172 99.3142 6.40013 98.805L14.9195 93.9768C15.7586 93.5013 15.5054 92.2331 14.5479 92.1148L4.83155 90.9146C3.80629 90.788 3.62068 89.3831 4.578 88.9955L13.6545 85.3207C14.5486 84.9588 14.4637 83.6684 13.5299 83.4262L4.05213 80.9678C3.05228 80.7084 3.05228 79.2914 4.05213 79.0321L13.5299 76.5736C14.4637 76.3314 14.5486 75.0411 13.6545 74.6791L4.578 71.0043C3.62068 70.6167 3.80629 69.2119 4.83155 69.0852L14.5479 67.885C15.5054 67.7668 15.7586 66.4985 14.9195 66.023L6.40013 61.1948C5.50172 60.6857 5.86976 59.317 6.90286 59.3253L16.6911 59.4036C17.6559 59.4113 18.073 58.1868 17.3033 57.606L9.48733 51.7073C8.66319 51.0853 9.20734 49.7762 10.2306 49.9193L19.9228 51.2743C20.8785 51.4079 21.4524 50.2481 20.7652 49.5719L13.7867 42.7041C13.0509 41.98 13.7618 40.7529 14.7576 41.0283L24.188 43.6363C25.1182 43.8935 25.839 42.8183 25.2461 42.0582L19.2244 34.3393C18.5895 33.5255 19.4551 32.4015 20.4064 32.8045L29.4138 36.6202C30.3024 36.9966 31.1579 36.0244 30.6693 35.1934L25.7075 26.7562C25.1844 25.8665 26.1897 24.8647 27.0802 25.3884L35.5107 30.3461C36.3425 30.8353 37.3181 29.9826 36.9421 29.0951L33.1249 20.0842C32.7224 19.1339 33.8503 18.2715 34.6647 18.9069L42.3746 24.9216C43.1354 25.5151 44.2143 24.7966 43.9574 23.8676L41.3496 14.4376C41.0745 13.443 42.3056 12.7347 43.0301 13.4708L49.888 20.4394C50.5648 21.127 51.7285 20.5551 51.5951 19.6004L50.2407 9.91286C50.0978 8.89081 51.4112 8.34872 52.0333 9.17299L57.9224 16.9764C58.5035 17.7464 59.7322 17.3307 59.7245 16.3667L59.6463 6.58723C59.638 5.55524 61.0111 5.18862 61.5202 6.08689L66.3402 14.5919C66.8158 15.4311 68.0884 15.1788 68.2066 14.2219L69.4053 4.51754C69.5318 3.49322 70.9412 3.30833 71.3286 4.26523L74.9974 13.3268C75.3593 14.2207 76.6541 14.1361 76.8962 13.2028L79.351 3.73911Z" fill="#FF0420"/>
<path d="M79.351 3.73911C79.6102 2.73996 81.0316 2.73996 81.2908 3.73911L83.7456 13.2028C83.9877 14.1361 85.2825 14.2207 85.6444 13.3268L89.3132 4.26523C89.7006 3.30833 91.1099 3.49321 91.2365 4.51754L92.4352 14.2219C92.5533 15.1788 93.826 15.4311 94.3016 14.5919L99.1216 6.08689C99.6307 5.18862 101.004 5.55524 100.996 6.58723L100.917 16.3667C100.91 17.3307 102.138 17.7464 102.719 16.9764L108.609 9.17299C109.231 8.34872 110.544 8.89081 110.401 9.91286L109.047 19.6004C108.913 20.5551 110.077 21.127 110.754 20.4394L117.612 13.4708C118.336 12.7347 119.567 13.443 119.292 14.4376L116.684 23.8676C116.428 24.7966 117.506 25.5151 118.267 24.9216L125.977 18.9069C126.792 18.2715 127.919 19.1339 127.517 20.0842L123.7 29.0951C123.324 29.9826 124.299 30.8353 125.131 30.3461L133.562 25.3884C134.452 24.8647 135.457 25.8665 134.934 26.7562L129.973 35.1934C129.484 36.0244 130.339 36.9966 131.228 36.6202L140.235 32.8045C141.187 32.4015 142.052 33.5255 141.417 34.3393L135.396 42.0582C134.803 42.8183 135.524 43.8935 136.454 43.6363L145.884 41.0283C146.88 40.7529 147.591 41.98 146.855 42.7041L139.877 49.5719C139.189 50.2481 139.763 51.4079 140.719 51.2743L150.411 49.9193C151.434 49.7762 151.979 51.0853 151.154 51.7073L143.338 57.606C142.569 58.1868 142.986 59.4113 143.951 59.4036L153.739 59.3253C154.772 59.317 155.14 60.6857 154.242 61.1948L145.722 66.023C144.883 66.4985 145.136 67.7668 146.094 67.885L155.81 69.0852C156.835 69.2119 157.021 70.6167 156.064 71.0043L146.987 74.6791C146.093 75.0411 146.178 76.3314 147.112 76.5736L156.59 79.0321C157.59 79.2914 157.59 80.7084 156.59 80.9678L147.112 83.4262C146.178 83.6684 146.093 84.9588 146.987 85.3207L156.064 88.9955C157.021 89.3831 156.835 90.788 155.81 90.9146L146.094 92.1148C145.136 92.2331 144.883 93.5013 145.722 93.9768L154.242 98.805C155.14 99.3142 154.772 100.683 153.739 100.675L143.951 100.596C142.986 100.589 142.569 101.813 143.338 102.394L151.154 108.293C151.979 108.915 151.434 110.224 150.411 110.081L140.719 108.726C139.763 108.592 139.189 109.752 139.877 110.428L146.855 117.296C147.591 118.02 146.88 119.247 145.884 118.972L136.454 116.364C135.524 116.106 134.803 117.182 135.396 117.942L141.417 125.661C142.052 126.474 141.187 127.598 140.235 127.195L131.228 123.38C130.339 123.003 129.484 123.975 129.973 124.806L134.934 133.244C135.457 134.133 134.452 135.135 133.562 134.611L125.131 129.654C124.299 129.165 123.324 130.017 123.7 130.905L127.517 139.916C127.919 140.866 126.792 141.728 125.977 141.093L118.267 135.078C117.506 134.485 116.428 135.203 116.684 136.132L119.292 145.562C119.567 146.557 118.336 147.265 117.612 146.529L110.754 139.56C110.077 138.873 108.913 139.445 109.047 140.399L110.401 150.087C110.544 151.109 109.231 151.651 108.609 150.827L102.719 143.023C102.138 142.253 100.91 142.669 100.917 143.633L100.996 153.413C101.004 154.445 99.6307 154.811 99.1216 153.913L94.3016 145.408C93.826 144.569 92.5533 144.821 92.4352 145.778L91.2365 155.482C91.1099 156.507 89.7006 156.692 89.3132 155.735L85.6444 146.673C85.2825 145.779 83.9877 145.864 83.7456 146.797L81.2908 156.261C81.0316 157.26 79.6102 157.26 79.351 156.261L76.8962 146.797C76.6541 145.864 75.3593 145.779 74.9974 146.673L71.3286 155.735C70.9412 156.692 69.5318 156.507 69.4053 155.482L68.2066 145.778C68.0884 144.821 66.8158 144.569 66.3402 145.408L61.5202 153.913C61.0111 154.811 59.638 154.445 59.6463 153.413L59.7245 143.633C59.7322 142.669 58.5035 142.253 57.9224 143.023L52.0333 150.827C51.4112 151.651 50.0978 151.109 50.2407 150.087L51.5951 140.399C51.7285 139.445 50.5648 138.873 49.888 139.56L43.0301 146.529C42.3056 147.265 41.0745 146.557 41.3496 145.562L43.9574 136.132C44.2143 135.203 43.1354 134.485 42.3746 135.078L34.6647 141.093C33.8503 141.728 32.7224 140.866 33.1249 139.916L36.9421 130.905C37.3181 130.017 36.3425 129.165 35.5107 129.654L27.0802 134.611C26.1897 135.135 25.1844 134.133 25.7075 133.244L30.6693 124.806C31.1579 123.975 30.3024 123.003 29.4138 123.38L20.4064 127.195C19.4551 127.598 18.5895 126.474 19.2244 125.661L25.2461 117.942C25.839 117.182 25.1182 116.106 24.188 116.364L14.7576 118.972C13.7618 119.247 13.0509 118.02 13.7867 117.296L20.7652 110.428C21.4524 109.752 20.8785 108.592 19.9228 108.726L10.2306 110.081C9.20734 110.224 8.66319 108.915 9.48733 108.293L17.3033 102.394C18.073 101.813 17.6559 100.589 16.6911 100.596L6.90285 100.675C5.86976 100.683 5.50172 99.3142 6.40013 98.805L14.9195 93.9768C15.7586 93.5013 15.5054 92.2331 14.5479 92.1148L4.83155 90.9146C3.80629 90.788 3.62068 89.3831 4.578 88.9955L13.6545 85.3207C14.5486 84.9588 14.4637 83.6684 13.5299 83.4262L4.05213 80.9678C3.05228 80.7084 3.05228 79.2914 4.05213 79.0321L13.5299 76.5736C14.4637 76.3314 14.5486 75.0411 13.6545 74.6791L4.578 71.0043C3.62068 70.6167 3.80629 69.2119 4.83155 69.0852L14.5479 67.885C15.5054 67.7668 15.7586 66.4985 14.9195 66.023L6.40013 61.1948C5.50172 60.6857 5.86976 59.317 6.90286 59.3253L16.6911 59.4036C17.6559 59.4113 18.073 58.1868 17.3033 57.606L9.48733 51.7073C8.66319 51.0853 9.20734 49.7762 10.2306 49.9193L19.9228 51.2743C20.8785 51.4079 21.4524 50.2481 20.7652 49.5719L13.7867 42.7041C13.0509 41.98 13.7618 40.7529 14.7576 41.0283L24.188 43.6363C25.1182 43.8935 25.839 42.8183 25.2461 42.0582L19.2244 34.3393C18.5895 33.5255 19.4551 32.4015 20.4064 32.8045L29.4138 36.6202C30.3024 36.9966 31.1579 36.0244 30.6693 35.1934L25.7075 26.7562C25.1844 25.8665 26.1897 24.8647 27.0802 25.3884L35.5107 30.3461C36.3425 30.8353 37.3181 29.9826 36.9421 29.0951L33.1249 20.0842C32.7224 19.1339 33.8503 18.2715 34.6647 18.9069L42.3746 24.9216C43.1354 25.5151 44.2143 24.7966 43.9574 23.8676L41.3496 14.4376C41.0745 13.443 42.3056 12.7347 43.0301 13.4708L49.888 20.4394C50.5648 21.127 51.7285 20.5551 51.5951 19.6004L50.2407 9.91286C50.0978 8.89081 51.4112 8.34872 52.0333 9.17299L57.9224 16.9764C58.5035 17.7464 59.7322 17.3307 59.7245 16.3667L59.6463 6.58723C59.638 5.55524 61.0111 5.18862 61.5202 6.08689L66.3402 14.5919C66.8158 15.4311 68.0884 15.1788 68.2066 14.2219L69.4053 4.51754C69.5318 3.49322 70.9412 3.30833 71.3286 4.26523L74.9974 13.3268C75.3593 14.2207 76.6541 14.1361 76.8962 13.2028L79.351 3.73911Z" stroke="#202327" stroke-width="2" mask="url(#path-1-outside-1_348_7505)"/>
</svg>